<svg viewBox="0 0 200 200" xmlns="http://www.w3.org/2000/svg" xmlns:xlink="http://www.w3.org/1999/xlink" role="img" aria-label="Cutlass and Compass LLC institutional seal">
  <defs>
    <radialGradient id="bg" cx="50%" cy="40%" r="70%">
      <stop offset="0%"  stop-color="#004225" stop-opacity="0.85"/>
      <stop offset="60%" stop-color="#00331d" stop-opacity="0.95"/>
      <stop offset="100%" stop-color="#001a0f" stop-opacity="1"/>
    </radialGradient>
    <radialGradient id="vignette" cx="50%" cy="50%" r="75%">
      <stop offset="55%" stop-color="#001a0f" stop-opacity="0"/>
      <stop offset="100%" stop-color="#001a0f" stop-opacity="0.65"/>
    </radialGradient>
    <filter id="softGlow" x="-20%" y="-20%" width="140%" height="140%">
      <feGaussianBlur stdDeviation="0.6" result="b"/>
      <feMerge>
        <feMergeNode in="b"/>
        <feMergeNode in="SourceGraphic"/>
      </feMerge>
    </filter>
  </defs>

  <!-- baked background so export matches screenshot -->
  <rect x="0" y="0" width="200" height="200" fill="url(#bg)"/>
  <rect x="0" y="0" width="200" height="200" fill="url(#vignette)"/>

  <path id="topArc" d="M 18,100 A 82,82 0 0,1 182,100" fill="none"/>
  <circle cx="100" cy="100" r="91" fill="none" stroke="#D4AF37" stroke-width="1.3" filter="url(#softGlow)"/>
  <circle cx="100" cy="100" r="85" fill="none" stroke="#D4AF37" stroke-width=".4" opacity=".55"/>
  <!-- Arc text without textPath (more compatible) -->
  <g fill="#D4AF37" font-size="7.8" font-family="'Cormorant SC',serif" text-anchor="middle" dominant-baseline="middle">
    <text transform="rotate(-165 100 100) translate(0 -82) rotate(90)">C</text>
    <text transform="rotate(-156.18 100 100) translate(0 -82) rotate(90)">U</text>
    <text transform="rotate(-147.35 100 100) translate(0 -82) rotate(90)">T</text>
    <text transform="rotate(-138.53 100 100) translate(0 -82) rotate(90)">L</text>
    <text transform="rotate(-129.71 100 100) translate(0 -82) rotate(90)">A</text>
    <text transform="rotate(-120.88 100 100) translate(0 -82) rotate(90)">S</text>
    <text transform="rotate(-112.06 100 100) translate(0 -82) rotate(90)">S</text>
    <text transform="rotate(-103.24 100 100) translate(0 -82) rotate(90)">•</text>
    <text transform="rotate(-94.41 100 100) translate(0 -82) rotate(90)">C</text>
    <text transform="rotate(-85.59 100 100) translate(0 -82) rotate(90)">O</text>
    <text transform="rotate(-76.76 100 100) translate(0 -82) rotate(90)">M</text>
    <text transform="rotate(-67.94 100 100) translate(0 -82) rotate(90)">P</text>
    <text transform="rotate(-59.12 100 100) translate(0 -82) rotate(90)">A</text>
    <text transform="rotate(-50.29 100 100) translate(0 -82) rotate(90)">S</text>
    <text transform="rotate(-41.47 100 100) translate(0 -82) rotate(90)">S</text>
    <text transform="rotate(-32.65 100 100) translate(0 -82) rotate(90)">L</text>
    <text transform="rotate(-23.82 100 100) translate(0 -82) rotate(90)">L</text>
    <text transform="rotate(-15 100 100) translate(0 -82) rotate(90)">C</text>
  </g>
  <circle cx="100" cy="190" r="1.6" fill="#D4AF37" opacity=".5"/>
  <circle cx="87"  cy="188" r="1"   fill="#D4AF37" opacity=".3"/>
  <circle cx="113" cy="188" r="1"   fill="#D4AF37" opacity=".3"/>
  <circle cx="100" cy="100" r="70" fill="none" stroke="#D4AF37" stroke-width=".5" opacity=".3"/>
  <g transform="rotate(45,100,100)">
    <path d="M 100,30 C 102.6,66 103.4,96 103.4,119 L 96.6,119 C 96.6,96 97.4,66 100,30 Z" fill="#D4AF37"/>
    <rect x="88" y="117" width="24" height="4.5" rx="2.2" fill="#D4AF37"/>
    <rect x="98.4" y="121.5" width="3.2" height="20" rx="1.6" fill="#D4AF37" opacity=".85"/>
    <circle cx="100" cy="146" r="4.8" fill="#D4AF37"/>
    <circle cx="100" cy="146" r="1.9" fill="#004225"/>
  </g>
  <g transform="rotate(-45,100,100)">
    <path d="M 100,30 C 102.6,66 103.4,96 103.4,119 L 96.6,119 C 96.6,96 97.4,66 100,30 Z" fill="#D4AF37"/>
    <rect x="88" y="117" width="24" height="4.5" rx="2.2" fill="#D4AF37"/>
    <rect x="98.4" y="121.5" width="3.2" height="20" rx="1.6" fill="#D4AF37" opacity=".85"/>
    <circle cx="100" cy="146" r="4.8" fill="#D4AF37"/>
    <circle cx="100" cy="146" r="1.9" fill="#004225"/>
  </g>
  <polygon points="100,40 103.8,91 100,99 96.2,91" fill="#D4AF37"/>
  <polygon points="100,36 102.3,43 100,41 97.7,43" fill="#D4AF37"/>
  <polygon points="100,44 103.5,91 100,99 96.5,91" fill="#D4AF37" transform="rotate(180,100,100)"/>
  <polygon points="100,44 103.5,91 100,99 96.5,91" fill="#D4AF37" transform="rotate(90,100,100)"/>
  <polygon points="100,44 103.5,91 100,99 96.5,91" fill="#D4AF37" transform="rotate(270,100,100)"/>
  <polygon points="100,57 102.5,92 100,99 97.5,92" fill="#D4AF37" opacity=".7" transform="rotate(45,100,100)"/>
  <polygon points="100,57 102.5,92 100,99 97.5,92" fill="#D4AF37" opacity=".7" transform="rotate(135,100,100)"/>
  <polygon points="100,57 102.5,92 100,99 97.5,92" fill="#D4AF37" opacity=".7" transform="rotate(225,100,100)"/>
  <polygon points="100,57 102.5,92 100,99 97.5,92" fill="#D4AF37" opacity=".7" transform="rotate(315,100,100)"/>
  <circle cx="100" cy="100" r="10"  fill="#004225" stroke="#D4AF37" stroke-width="1.4"/>
  <circle cx="100" cy="100" r="4.5" fill="#D4AF37"/>
  <circle cx="100" cy="100" r="2"   fill="#004225"/>
</svg>
